OpenSim_Sub10_CSStiffKnee_LCS.mot
version=1
nRows=51
nColumns=11
inDegrees=no
endheader
time	Bot_Shank	2nd_Bot_Shank	2nd_Top_Shank	Top_Shank	Bot_Thigh	Med_Thigh	Top_Thigh	BNOx	BNOy	BNOZ
0	10378.92105503	10423.95824619	10913.75312346	10837.36813031	13134.83295211	14169.17588865	14732.76895083	214.49241225	-75.38331337	135.65265996
0.01000000	10378.96579868	10423.41347145	10912.48788695	10837.57898762	13133.97338490	14166.80710762	14733.23954946	214.50851959	-75.38645025	135.58687566
0.02000000	10379.11431782	10422.82100876	10911.27162399	10837.89649092	13133.73771091	14164.67750794	14733.63599707	214.52043290	-75.39229041	135.52821674
0.03000000	10379.34197729	10422.21479827	10910.21519612	10838.35247722	13134.19666189	14163.09013841	14733.92340917	214.52554472	-75.40176578	135.48111394
0.04000000	10379.62414192	10421.62878013	10909.42946488	10838.97878352	13135.42096959	14162.34804782	14734.06690126	214.52124761	-75.41580827	135.44999799
0.05000000	10379.93617657	10421.09689449	10909.02529182	10839.80724684	13137.48136576	14162.75428495	14734.03158886	214.50493412	-75.43534980	135.43929965
0.06000000	10380.25498390	10420.64995144	10909.09721725	10840.86139514	13140.42459707	14164.55963284	14733.78806380	214.47441329	-75.46114977	135.45275969
0.07000000	10380.56883233	10420.29562791	10909.61915749	10842.10334738	13144.12014549	14167.62859795	14733.34739157	214.43057231	-75.49269244	135.48901967
0.08000000	10380.87108435	10420.03123249	10910.51096484	10843.46769882	13148.35804241	14171.65255644	14732.73877801	214.37567804	-75.52889059	135.54443565
0.09000000	10381.15512654	10419.85402487	10911.69223657	10844.88891489	13152.92794446	14176.32206781	14731.99151455	214.31200382	-75.56865429	135.61535293
0.10000000	10381.41434544	10419.76126471	10913.08256994	10846.30146102	13157.61950828	14181.32769157	14731.13489262	214.24182300	-75.61089360	135.69811678
0.11000000	10381.64212761	10419.75021171	10914.60156223	10847.63980265	13162.22239050	14186.35998723	14730.19820363	214.16740893	-75.65451859	135.78907250
0.12000000	10381.83185959	10419.81812555	10916.16881071	10848.83840520	13166.52624774	14191.10951429	14729.21073903	214.09103496	-75.69843934	135.88456536
0.13000000	10381.97692795	10419.96226590	10917.70391264	10849.83173410	13170.32073664	14195.26683226	14728.20179022	214.01497444	-75.74156590	135.98094066
0.14000000	10382.07140287	10420.18025983	10919.14145649	10850.56416404	13173.41639520	14198.55528894	14727.20127787	213.94134257	-75.78291165	136.07504635
0.15000000	10382.11440709	10420.47244963	10920.52682501	10851.05330527	13175.77808793	14200.94055818	14726.24377305	213.87108587	-75.82225330	136.16744539
0.16000000	10382.10732791	10420.84039454	10921.95505926	10851.34959243	13177.43984889	14202.49692506	14725.36593116	213.80462698	-75.85970974	136.26036580
0.17000000	10382.05156330	10421.28565955	10923.52143456	10851.50361502	13178.43603843	14203.29918698	14724.60441743	213.74238613	-75.89540144	136.35604350
0.18000000	10381.94851125	10421.80980964	10925.32122620	10851.56596251	13178.80101690	14203.42214135	14723.99589709	213.68478350	-75.92944890	136.45671436
0.19000000	10381.79956974	10422.41440982	10927.44970950	10851.58722439	13178.56914464	14202.94058557	14723.57703537	213.63223931	-75.96197260	136.56461429
0.20000000	10381.60613675	10423.10102505	10930.00215975	10851.61799013	13177.77478199	14201.92931703	14723.38449751	213.58517374	-75.99309303	136.68197916
0.21000000	10381.36961025	10423.87122033	10933.07385228	10851.70884922	13176.45228931	14200.46313316	14723.45494874	213.54400700	-76.02293068	136.81104488
0.22000000	10381.09138823	10424.72656066	10936.76006238	10851.91039114	13174.63602693	14198.61683133	14723.82505429	213.50915928	-76.05160603	136.95404733
0.23000000	10380.77486404	10425.66670941	10941.14210907	10852.26934136	13172.36209870	14196.46768654	14724.52525290	213.48090328	-76.07925164	137.11282021
0.24000000	10380.44403041	10426.67169868	10946.15723183	10852.79253464	13169.68460757	14194.11855121	14725.52170348	213.45798874	-76.10612462	137.28504497
0.25000000	10380.13503264	10427.70997912	10951.65767101	10853.46327242	13166.66827500	14191.68736712	14726.74264326	213.43826697	-76.13255558	137.46595348
0.26000000	10379.88417309	10428.74985170	10957.49456833	10854.26455195	13163.37795972	14189.29227106	14728.11581934	213.41957767	-76.15887609	137.65074596
0.27000000	10379.72775410	10429.75961740	10963.51906553	10855.17937048	13159.87852043	14187.05139983	14729.56897884	213.39976052	-76.18541770	137.83462262
0.28000000	10379.70207804	10430.70757718	10969.58230432	10856.19072528	13156.23481585	14185.08289023	14731.02986885	213.37665523	-76.21251195	138.01278368
0.29000000	10379.84344727	10431.56203201	10975.53542644	10857.28161360	13152.51170468	14183.50487906	14732.42623649	213.34810148	-76.24049043	138.18042934
0.30000000	10380.18816413	10432.29128288	10981.22957363	10858.43503269	13148.77404565	14182.43550311	14733.68582885	213.31193898	-76.26968467	138.33275982
0.31000000	10380.77253099	10432.86363073	10986.51588760	10859.63397981	13145.08669746	14181.99289918	14734.73639304	213.26600740	-76.30042623	138.46497533
0.32000000	10381.62794413	10433.25577083	10991.25679642	10860.86334273	13141.51945438	14182.28312047	14735.51274455	213.20842045	-76.33302200	138.57306718
0.33000000	10382.73515139	10433.53105759	10995.43124396	10862.12752609	13138.19306330	14183.28747373	14736.02267003	213.14012025	-76.36752394	138.66119366
0.34000000	10384.04502075	10433.80396972	10999.08691214	10863.44244847	13135.25833047	14184.91367198	14736.31700523	213.06371764	-76.40383368	138.73833111
0.35000000	10385.50803402	10434.18964670	11002.27237132	10864.82417725	13132.86645063	14187.06847709	14736.44714228	212.98184497	-76.44185090	138.81351817
0.36000000	10387.07467297	10434.80322802	11005.03619186	10866.28877981	13131.16861854	14189.65865089	14736.46447334	212.89713463	-76.48147527	138.89579348
0.37000000	10388.69541941	10435.75985315	11007.42694412	10867.85232354	13130.31602894	14192.59095524	14736.42039055	212.81221899	-76.52260647	138.99419565
0.38000000	10390.32075513	10437.17466157	11009.49319845	10869.53087582	13130.45987658	14195.77215198	14736.36628606	212.72973043	-76.56514418	139.11776334
0.39000000	10391.90116192	10439.16279276	11011.28352521	10871.34050402	13131.75135622	14199.10900297	14736.35355200	212.65230132	-76.60898806	139.27553515
0.40000000	10393.38712157	10441.83938620	11012.84649476	10873.29727554	13134.34166261	14202.50827006	14736.43358052	212.58256403	-76.65403780	139.47654973
0.41000000	10394.72911588	10445.31958136	11014.23067745	10875.41725776	13138.38199048	14205.87671508	14736.65776377	212.52315095	-76.70019308	139.72984571
0.42000000	10395.87762663	10449.71851773	11015.48464365	10877.71651807	13144.02353460	14209.12109989	14737.07749389	212.47669444	-76.74735356	140.04446172
0.43000000	10396.78313562	10455.15133480	11016.65696371	10880.21112383	13151.41748971	14212.14818635	14737.74416303	212.44582688	-76.79541893	140.42943639
0.44000000	10397.40287397	10461.70224282	11017.79103893	10882.90691389	13160.67072252	14214.86903921	14738.70298284	212.43304202	-76.84410997	140.89204934
0.45000000	10397.76375029	10469.13615084	11018.87690727	10885.70413135	13171.43247416	14217.23914491	14739.93536003	212.43940246	-76.89130063	141.42142101
0.46000000	10397.93377916	10477.02959732	11019.87312518	10888.44072356	13183.08201119	14219.24019630	14741.38505984	212.46512649	-76.93377534	141.99595882
0.47000000	10397.98150646	10484.95668604	11020.73784220	10890.95383266	13194.99511081	14220.85422492	14742.99536095	212.51042151	-76.96830443	142.59393176
0.48000000	10397.97547804	10492.49152080	11021.42920790	10893.08060082	13206.54755021	14222.06326233	14744.70954208	212.57549489	-76.99165824	143.19360882
0.49000000	10397.98423979	10499.20820539	11021.90537181	10894.65817020	13217.11510659	14222.84934009	14746.47088193	212.66055403	-77.00060713	143.77325898
0.50000000	10398.07117195	10504.71236685	11022.12916878	10895.54044744	13226.11770578	14223.19873124	14748.22038550	212.76561513	-76.99223564	144.31232905
